<svg id="Layer_1" data-name="Layer 1" xmlns="http://www.w3.org/2000/svg" viewBox="0 0 595.27 595.27"><path d="M297.64,123.31c-80.84,0-91,.34-122.72,1.79s-53.32,6.47-72.25,13.83A146,146,0,0,0,50,173.26,146,146,0,0,0,15.62,226C8.27,244.91,3.24,266.55,1.79,298.23S0,340.11,0,420.94s.34,91,1.79,122.72S8.27,597,15.62,615.91A146,146,0,0,0,50,668.63,146,146,0,0,0,102.67,703c18.93,7.35,40.57,12.38,72.25,13.83s41.88,1.79,122.72,1.79,91-.34,122.71-1.79,53.32-6.48,72.25-13.83a152.19,152.19,0,0,0,87-87.05C587,597,592,575.34,593.48,543.66s1.79-41.88,1.79-122.72-.34-91-1.79-122.71S587,244.91,579.65,226a152.19,152.19,0,0,0-87-87c-18.93-7.36-40.57-12.39-72.25-13.83s-41.88-1.79-122.71-1.79Zm0,53.63c79.47,0,88.88.3,120.27,1.73,29,1.33,44.78,6.17,55.26,10.25a98.49,98.49,0,0,1,56.49,56.49c4.08,10.48,8.93,26.24,10.25,55.26,1.43,31.39,1.73,40.8,1.73,120.27s-.3,88.89-1.73,120.28c-1.32,29-6.17,44.77-10.25,55.26A98.56,98.56,0,0,1,473.17,653c-10.48,4.07-26.24,8.92-55.26,10.25-31.38,1.43-40.79,1.73-120.27,1.73s-88.89-.3-120.27-1.73c-29-1.33-44.78-6.18-55.27-10.25A92.15,92.15,0,0,1,87.88,630.7a92.15,92.15,0,0,1-22.27-34.22c-4.07-10.49-8.92-26.25-10.25-55.26-1.43-31.39-1.73-40.8-1.73-120.28s.3-88.88,1.73-120.27c1.33-29,6.18-44.78,10.25-55.26a92.19,92.19,0,0,1,22.27-34.23,92.25,92.25,0,0,1,34.22-22.26c10.49-4.08,26.25-8.92,55.27-10.25C208.75,177.24,218.17,176.94,297.64,176.94Z" transform="translate(0 -123.31)"/><path d="M297.64,520.16a99.22,99.22,0,1,1,99.21-99.22A99.22,99.22,0,0,1,297.64,520.16Zm0-252.06A152.84,152.84,0,1,0,450.48,420.94,152.84,152.84,0,0,0,297.64,268.1Z" transform="translate(0 -123.31)"/><path d="M492.23,262.06a35.72,35.72,0,1,1-35.71-35.71A35.71,35.71,0,0,1,492.23,262.06Z" transform="translate(0 -123.31)"/></svg>